<?xml version="1.0" encoding="UTF-8" standalone="no"?>
<svg
   xmlns:dc="http://purl.org/dc/elements/1.1/"
   xmlns:cc="http://creativecommons.org/ns#"
   xmlns:rdf="http://www.w3.org/1999/02/22-rdf-syntax-ns#"
   xmlns:svg="http://www.w3.org/2000/svg"
   xmlns="http://www.w3.org/2000/svg"
   xmlns:sodipodi="http://sodipodi.sourceforge.net/DTD/sodipodi-0.dtd"
   xmlns:inkscape="http://www.inkscape.org/namespaces/inkscape"
   viewBox="0 -256 1792 1792"
   id="svg3013"
   width="100%"
   height="100%">
  <g
     transform="matrix(1,0,0,-1,387.25424,1338.5763)"
     id="g3015">
    <path
       d="M 742,-37 90,614 Q 53,651 53,704.5 53,758 90,795 l 652,651 q 37,37 90.5,37 53.5,0 90.5,-37 l 75,-75 q 37,-37 37,-90.5 0,-53.5 -37,-90.5 L 512,704 998,219 q 37,-38 37,-91 0,-53 -37,-90 L 923,-37 Q 886,-74 832.5,-74 779,-74 742,-37 z"
       id="path3017"
       inkscape:connector-curvature="0"
       style="fill:white" />
  </g>
</svg>
